<?xml version="1.0" encoding="utf-8"?>
<!-- Generator: Adobe Illustrator 25.0.1, SVG Export Plug-In . SVG Version: 6.00 Build 0)  -->
<svg version="1.0" id="katman_1" xmlns="http://www.w3.org/2000/svg" xmlns:xlink="http://www.w3.org/1999/xlink" x="0px" y="0px"
	 viewBox="0 0 600 400" style="enable-background:new 0 0 600 400;" xml:space="preserve">
<style type="text/css">
	.st0{opacity:0.751;fill-rule:evenodd;clip-rule:evenodd;fill:#4C5F66;enable-background:new    ;}
	.st1{fill-rule:evenodd;clip-rule:evenodd;fill:#FFFFFF;}
	.st2{fill:none;stroke:#FFFFFF;stroke-width:2.7088;}
	.st3{filter:url(#Adobe_OpacityMaskFilter);}
	.st4{mask:url(#b_3_);fill:none;}
	.st5{filter:url(#Adobe_OpacityMaskFilter_1_);}
	.st6{mask:url(#b_2_);fill:none;stroke:#FFFFFF;stroke-width:2.7088;}
	.st7{filter:url(#Adobe_OpacityMaskFilter_2_);}
	.st8{mask:url(#b_1_);fill:none;stroke:#FFFFFF;stroke-width:2.7088;}
</style>
<g>
	<g>
		<path class="st0" d="M132.1,212.8h335.9c10.5,0,19,8.5,19,19v70.4c0,10.5-8.5,19-19,19H132.1c-10.5,0-19-8.5-19-19v-70.4
			C113.1,221.3,121.6,212.8,132.1,212.8z"/>
		<path class="st1" d="M256.5,296h6.3l-13.8-36.3h-6.4L228.7,296h6.1l3.5-9.6H253C253,286.4,256.5,296,256.5,296z M245.4,266.3h0.5
			l5.5,15.3h-11.6L245.4,266.3z M279.5,268.2c-3.9,0-7.3,1.9-9.1,5H270v-4.5h-5.5v36.3h5.7v-13h0.5c1.5,2.9,4.8,4.6,8.9,4.6
			c7.3,0,11.9-5.5,11.9-14.2C291.5,273.6,286.9,268.2,279.5,268.2z M277.9,291.6c-4.8,0-7.8-3.6-7.8-9.3c0-5.7,3-9.3,7.8-9.3
			c4.8,0,7.7,3.5,7.7,9.3C285.6,288.1,282.7,291.6,277.9,291.6L277.9,291.6z M309.1,268.2c-3.9,0-7.3,1.9-9.1,5h-0.4v-4.5h-5.5v36.3
			h5.7v-13h0.5c1.5,2.9,4.8,4.6,8.9,4.6c7.3,0,11.9-5.5,11.9-14.2C321.1,273.6,316.4,268.2,309.1,268.2z M307.5,291.6
			c-4.8,0-7.8-3.6-7.8-9.3c0-5.7,3-9.3,7.8-9.3c4.8,0,7.7,3.5,7.7,9.3C315.2,288.1,312.3,291.6,307.5,291.6z M333.2,286.3
			c0.4,6.5,6.1,10.6,14.6,10.6c9.1,0,14.7-4.4,14.7-11.3c0-5.5-3.2-8.5-11.1-10.2l-4.2-1c-5-1.1-7-2.6-7-5.2c0-3.3,3.1-5.4,7.8-5.4
			c4.5,0,7.5,2.1,8.1,5.4h5.8c-0.3-6.1-6-10.4-13.8-10.4c-8.4,0-13.9,4.3-13.9,10.8c0,5.3,3.2,8.5,10.1,10l4.9,1.1
			c5.1,1.1,7.3,2.8,7.3,5.6c0,3.2-3.5,5.6-8.3,5.6c-5.1,0-8.7-2.2-9.2-5.6H333.2L333.2,286.3z M367.4,262v6.8h-4.8v4.6h4.7v15.5
			c0,5.3,2.5,7.4,8.9,7.4c1,0,2-0.1,3.1-0.3v-4.5c-0.8,0.1-1.2,0.1-2.1,0.1c-2.8,0-4.1-1.3-4.1-4.1v-14.1h6.5v-4.6h-6.5V262
			L367.4,262L367.4,262z M393.7,291.8c-5,0-7.7-3.4-7.7-9.4c0-5.9,2.8-9.4,7.7-9.4c4.9,0,7.7,3.5,7.7,9.4
			C401.5,288.3,398.7,291.8,393.7,291.8z M393.7,296.6c8.4,0,13.6-5.4,13.6-14.2c0-8.8-5.2-14.2-13.6-14.2
			c-8.4,0-13.6,5.4-13.6,14.2C380.1,291.2,385.3,296.6,393.7,296.6z M410,296h5.7v-16.2c0-3.8,3.1-6.4,7.3-6.4c1,0,2.7,0.2,3.2,0.3
			v-5.3c-0.6-0.2-1.7-0.2-2.5-0.2c-3.8,0-7,2-7.8,4.7h-0.4v-4.2H410V296L410,296z M439,272.7c4.2,0,7,2.8,7.1,7.1h-14.6
			C431.8,275.5,434.8,272.7,439,272.7z M446.1,288.6c-1.1,2.1-3.4,3.3-6.9,3.3c-4.6,0-7.5-3-7.7-7.8v-0.3h20.4v-1.9
			c0-8.6-4.9-13.8-12.9-13.8c-8.1,0-13.3,5.6-13.3,14.3c0,8.7,5.1,14.1,13.3,14.1c6.6,0,11.2-3,12.5-7.9
			C451.6,288.6,446.1,288.6,446.1,288.6z M234.1,229.9v17.8h6.5c5.4,0,8.5-3.3,8.5-9c0-5.6-3.1-8.9-8.5-8.9H234.1z M236.9,232.5h3.4
			c3.7,0,6,2.3,6,6.4c0,4.1-2.2,6.4-6,6.4h-3.4C236.9,245.3,236.9,232.5,236.9,232.5z M259,245.7c-2.3,0-3.7-1.7-3.7-4.6
			c0-2.9,1.3-4.6,3.7-4.6c2.3,0,3.7,1.7,3.7,4.6C262.7,244,261.3,245.7,259,245.7z M259,248c4,0,6.4-2.6,6.4-7c0-4.3-2.5-7-6.4-7
			c-4,0-6.4,2.6-6.4,7C252.6,245.4,255,248,259,248z M286.5,234.3h-2.7l-2.4,10.3h-0.2l-2.8-10.3h-2.6l-2.8,10.3h-0.2l-2.4-10.3
			h-2.7l3.8,13.5h2.8l2.8-9.9h0.2l2.8,9.9h2.8C282.8,247.8,286.5,234.3,286.5,234.3z M290,247.8h2.7v-7.9c0-2.1,1.3-3.4,3.5-3.4
			c2,0,3,1.1,3,3.2v8h2.7v-8.7c0-3.2-1.7-5-4.8-5c-2.1,0-3.6,0.9-4.3,2.4h-0.2v-2.1H290L290,247.8L290,247.8z M306.4,247.8h2.7
			v-18.7h-2.7C306.4,229.1,306.4,247.8,306.4,247.8z M319.5,245.7c-2.3,0-3.7-1.7-3.7-4.6c0-2.9,1.3-4.6,3.7-4.6
			c2.3,0,3.7,1.7,3.7,4.6C323.2,244,321.8,245.7,319.5,245.7z M319.5,248c4,0,6.4-2.6,6.4-7c0-4.3-2.5-7-6.4-7c-4,0-6.4,2.6-6.4,7
			C313.1,245.4,315.5,248,319.5,248z M334.3,245.8c-1.5,0-2.5-0.7-2.5-1.9c0-1.2,0.9-1.8,2.7-1.9l3.3-0.2v1.1
			C337.8,244.5,336.3,245.8,334.3,245.8L334.3,245.8z M333.6,248c1.8,0,3.3-0.8,4.1-2.1h0.2v1.9h2.6v-9.2c0-2.8-1.9-4.5-5.3-4.5
			c-3.1,0-5.3,1.5-5.6,3.8h2.6c0.3-0.9,1.3-1.5,2.8-1.5c1.8,0,2.8,0.8,2.8,2.2v1.2l-3.7,0.2c-3.2,0.2-5.1,1.6-5.1,4
			C329,246.4,330.9,248,333.6,248z M349.9,248c1.9,0,3.5-0.9,4.3-2.3h0.2v2.1h2.6v-18.7h-2.7v7.4h-0.2c-0.7-1.5-2.3-2.4-4.2-2.4
			c-3.4,0-5.7,2.7-5.7,6.9C344.3,245.3,346.5,248,349.9,248L349.9,248z M350.7,236.5c2.3,0,3.7,1.8,3.7,4.6c0,2.8-1.4,4.6-3.7,4.6
			c-2.3,0-3.6-1.7-3.6-4.6C347,238.2,348.4,236.5,350.7,236.5z M375.1,245.7c-2.3,0-3.7-1.7-3.7-4.6c0-2.9,1.3-4.6,3.7-4.6
			c2.3,0,3.7,1.7,3.7,4.6C378.7,244,377.4,245.7,375.1,245.7z M375.1,248c4,0,6.4-2.6,6.4-7c0-4.3-2.5-7-6.4-7c-4,0-6.4,2.6-6.4,7
			C368.6,245.4,371.1,248,375.1,248z M385.4,247.8h2.7v-7.9c0-2.1,1.3-3.4,3.5-3.4c2,0,3,1.1,3,3.2v8h2.7v-8.7c0-3.2-1.7-5-4.8-5
			c-2.1,0-3.6,0.9-4.3,2.4H388v-2.1h-2.6L385.4,247.8L385.4,247.8z M410.3,231.1v3.3H408v2.2h2.2v7.6c0,2.6,1.2,3.6,4.2,3.6
			c0.5,0,1-0.1,1.4-0.1v-2.2c-0.4,0-0.6,0.1-1,0.1c-1.3,0-1.9-0.6-1.9-2v-6.9h3.1v-2.2H413v-3.3C413,231.1,410.3,231.1,410.3,231.1z
			 M419.9,247.8h2.7v-7.9c0-2,1.4-3.4,3.6-3.4c2,0,3,1.1,3,3.2v8h2.7v-8.7c0-3.2-1.8-5-4.8-5c-2.1,0-3.6,0.9-4.3,2.4h-0.2v-7.4h-2.7
			C419.9,229.1,419.9,247.8,419.9,247.8z M441.9,236.3c2,0,3.3,1.4,3.4,3.5h-6.9C438.5,237.7,439.9,236.3,441.9,236.3z M445.2,244.1
			c-0.5,1-1.6,1.6-3.2,1.6c-2.2,0-3.5-1.5-3.6-3.9v-0.1h9.6v-0.9c0-4.2-2.3-6.8-6.1-6.8c-3.8,0-6.3,2.7-6.3,7c0,4.3,2.4,6.9,6.3,6.9
			c3.1,0,5.3-1.5,5.9-3.9C447.8,244.1,445.2,244.1,445.2,244.1z"/>
		<g>
			<path class="st1" d="M197.4,266.4c-0.1-8.9,7.5-13.2,7.8-13.4c-4.3-6.1-10.9-6.9-13.2-7c-5.6-0.6-11,3.2-13.8,3.2
				c-2.9,0-7.3-3.2-12-3.1c-6.1,0.1-11.7,3.5-14.8,8.8c-6.4,10.8-1.6,26.7,4.5,35.4c3.1,4.3,6.7,9,11.4,8.9
				c4.6-0.2,6.3-2.8,11.9-2.8c5.5,0,7.1,2.8,11.9,2.7c4.9-0.1,8-4.3,11-8.6c3.6-4.9,5-9.7,5-10C206.9,280.6,197.5,277,197.4,266.4
				 M188.3,240.3c2.5-3,4.2-7.1,3.7-11.3c-3.6,0.2-8.1,2.4-10.6,5.3c-2.3,2.6-4.3,6.8-3.8,10.8C181.6,245.5,185.7,243.3,188.3,240.3
				"/>
		</g>
	</g>
	<g>
		<path class="st0" d="M132.1,78.8h335.9c10.5,0,19,8.5,19,19v72.9c0,10.5-8.5,19-19,19H132.1c-10.5,0-19-8.5-19-19V97.8
			C113.1,87.3,121.6,78.8,132.1,78.8z"/>
		<g>
			<path class="st1" d="M310.7,97.5c4.8,0,8.7,4.1,8.7,9.1s-3.9,9.1-8.7,9.1c-4.8,0-8.7-4.1-8.7-9.1S305.9,97.5,310.7,97.5z
				 M310.7,100.3c-3.3,0-6,2.8-6,6.3s2.7,6.3,6,6.3c3.3,0,6-2.8,6-6.3S314,100.3,310.7,100.3z M259,98.3v2h-7v5.3h6.3v2l-6.3,0v5.6
				h7v2h-9.6V98.3H259L259,98.3z M272.5,98.3v2h-4.1v14.9h-2.6v-14.9h-4.1v-2H272.5z M296,98.3v2h-4.1l0,14.9h-2.6v-14.9h-4.1v-2
				H296z M280.2,98.3h2.6v16.9h-2.6V98.3z M324.2,102l0,13.2h-2.6V98.3h3.1l7.2,12.4V98.3h2.6v16.9h-2.6L324.2,102z M239.5,105.9
				h7.2l-0.1,2.3h-7.2V105.9z"/>
			<path class="st1" d="M239.4,97.8c2.5,0,4.5,0.9,5.9,2.5l-1.7,1.7c-1-1.1-2.5-1.7-4.2-1.7c-3.4,0-6.1,2.9-6.1,6.4
				c0,3.5,2.7,6.4,6.1,6.4c3.4,0,5.8-2.1,5.8-6.4c0-0.3,0-0.5,0-0.8h2.1l0,0.1c0.8,5.9-2.9,9.4-7.5,9.6l-0.5,0c-4.7,0-8.5-4-8.5-8.9
				C230.9,101.8,234.7,97.8,239.4,97.8z"/>
		</g>
		<g>
			<path class="st1" d="M394.5,128.6c0,0,7.9,1.4,7.9,10.9c0,9.5-7.9,10.9-7.9,10.9h-13.6v-21.7L394.5,128.6L394.5,128.6z
				 M392.8,133.8h-9.3v11.7h9.3c0.3,0,4.2-0.2,4.2-5.8C397,133.8,392.8,133.8,392.8,133.8L392.8,133.8z"/>
			<path class="st1" d="M379.7,128.6h4.8v35.3h-4.8V128.6z M405.2,128.6h4.8v35.3h-4.8V128.6z M422.9,140.4c8.4,0,9.8,6.1,9.8,8.1
				l0,0v15.4h-4.8v-2.5c-1.3,1.1-3.4,2.2-6.8,2.4c-7.7,0.5-7.7-6.8-7.7-7.3v-0.1c0-0.8-0.2-6.4,5.7-7.4c4.3-0.7,7.3,0.4,8.7,1.2v-1
				c-0.3-1.4-1.4-3.9-4.6-3.9c-4.4,0-5.3,2.5-5.3,2.5l-4-2.5l0-0.1C414.2,144.6,416.6,140.4,422.9,140.4z M417.9,156.6
				c-0.3,5.5,8.9,2.8,9.7-1c0-1.2-0.1-1.8-0.1-1.8S418.2,151.2,417.9,156.6z M437.9,141.2l6.2,15.4l6.1-15.3h4.8l-13,32.4h-4.8
				l4.5-11.2l-8.6-21.4H437.9L437.9,141.2z M358.8,140.4c8.1,0,10.2,9,10.2,9l-15.2,6.6c0,0,1,3.7,5.6,3.7c3.6,0,5.6-3.3,5.6-3.3
				l3.9,2.7c0,0-3.1,5.3-9.5,5.3c-7.8,0-11.3-7.2-11.3-11.9C348,148,350.7,140.4,358.8,140.4L358.8,140.4z M358.3,145.1
				c-6.2,1.2-5.4,6.9-5.4,6.9l10.3-4.4C363.2,147.6,361.2,144.5,358.3,145.1L358.3,145.1z M340.8,128.6h5.1v35.3h-5.1V128.6z
				 M326.3,140.4c4.3-0.1,6.3,3,6.3,3v-2.2l4.7,0v22.3c0,5.7-3.2,11.7-10.8,11.7c-7.6,0-10-7.1-10-7.1l4.3-1.9c0,0,1.3,4.4,5.9,4.4
				c5.3,0,5.9-5,5.9-6.8v-2.4c0,0-1.8,3-6.4,3c-4.9,0-10.8-4.4-10.8-12C315.5,144.9,321,140.6,326.3,140.4L326.3,140.4z
				 M326.7,145.1c-3.4,0-6.2,3.3-6.2,7.4c0,4.1,2.8,7.4,6.2,7.4s6.2-3.3,6.2-7.4C332.9,148.4,330.1,145.1,326.7,145.1z M302,140.4
				c6.3,0,11.4,5.4,11.4,12c0,6.6-5.1,12-11.4,12c-6.3,0-11.4-5.4-11.4-12C290.5,145.8,295.6,140.4,302,140.4z M301.9,145.1
				c-3.6,0-6.4,3.3-6.4,7.3c0,4,2.9,7.3,6.4,7.3s6.4-3.3,6.4-7.3C308.3,148.4,305.4,145.1,301.9,145.1z M277.2,140.4
				c6.3,0,11.5,5.4,11.5,12c0,6.6-5.1,12-11.5,12c-6.3,0-11.4-5.4-11.4-12C265.7,145.8,270.9,140.4,277.2,140.4z M277.1,145.1
				c-3.6,0-6.4,3.3-6.4,7.3c0,4,2.9,7.3,6.4,7.3s6.4-3.3,6.4-7.3C283.5,148.4,280.7,145.1,277.1,145.1z"/>
			<g>
				<path class="st1" d="M247.6,144.2h15.1l-0.2,5h-15V144.2z"/>
				<path class="st1" d="M247.4,127.3c5.1,0,9.4,1.9,12.4,5.1l-3.5,3.6c-2.2-2.3-5.2-3.6-8.8-3.6c-7.1,0-12.8,6-12.8,13.4
					c0,7.4,5.7,13.4,12.8,13.4c7.1,0,12.1-4.3,12.1-13.4c0-0.6,0-1.1,0-1.6h4.4l0,0.2c1.6,12.5-6.3,19.8-16,20l-0.6,0
					c-9.8,0-17.7-8.3-17.7-18.6C229.7,135.6,237.6,127.3,247.4,127.3L247.4,127.3z"/>
			</g>
		</g>
		<g transform="translate(11.676 7.268)">
			<g transform="rotate(90 12.266 13.148)">
				<path id="a_1_" class="st2" d="M195.7,123.3c3.7,2,3.6,5.2,0,7.2l-54.8,29.7c-3.7,2-6.6,0.2-6.6-4V97.5c0-4.2,3-5.9,6.6-4
					L195.7,123.3L195.7,123.3z"/>
			</g>
			<defs>
				<filter id="Adobe_OpacityMaskFilter" filterUnits="userSpaceOnUse" x="135.3" y="91.2" width="34" height="71.5">
					<feColorMatrix  type="matrix" values="1 0 0 0 0  0 1 0 0 0  0 0 1 0 0  0 0 0 1 0"/>
				</filter>
			</defs>
			<mask maskUnits="userSpaceOnUse" x="135.3" y="91.2" width="34" height="71.5" id="b_3_">
				<g class="st3">
					<path id="a_4_" class="st1" d="M162.7,97.4c2-3.7,5.2-3.6,7.2,0l29.7,54.8c2,3.7,0.2,6.6-4,6.6H137c-4.2,0-5.9-3-4-6.6
						L162.7,97.4L162.7,97.4z"/>
				</g>
			</mask>
			<path class="st4" d="M135.8,91.2l33.6,35.1l-34,36.5L135.8,91.2z"/>
			<defs>
				<filter id="Adobe_OpacityMaskFilter_1_" filterUnits="userSpaceOnUse" x="127.9" y="82.8" width="55.8" height="45.4">
					<feColorMatrix  type="matrix" values="1 0 0 0 0  0 1 0 0 0  0 0 1 0 0  0 0 0 1 0"/>
				</filter>
			</defs>
			<mask maskUnits="userSpaceOnUse" x="127.9" y="82.8" width="55.8" height="45.4" id="b_2_">
				<g class="st5">
					<path id="a_3_" class="st1" d="M162.7,97.4c2-3.7,5.2-3.6,7.2,0l29.7,54.8c2,3.7,0.2,6.6-4,6.6H137c-4.2,0-5.9-3-4-6.6
						L162.7,97.4L162.7,97.4z"/>
				</g>
			</mask>
			<path class="st6" d="M128.8,84l40.5,42.3l12-12.1L128.8,84z"/>
			<defs>
				<filter id="Adobe_OpacityMaskFilter_2_" filterUnits="userSpaceOnUse" x="131.7" y="124.3" width="58.5" height="42.3">
					<feColorMatrix  type="matrix" values="1 0 0 0 0  0 1 0 0 0  0 0 1 0 0  0 0 0 1 0"/>
				</filter>
			</defs>
			<mask maskUnits="userSpaceOnUse" x="131.7" y="124.3" width="58.5" height="42.3" id="b_1_">
				<g class="st7">
					<path id="a_2_" class="st1" d="M162.7,97.4c2-3.7,5.2-3.6,7.2,0l29.7,54.8c2,3.7,0.2,6.6-4,6.6H137c-4.2,0-5.9-3-4-6.6
						L162.7,97.4L162.7,97.4z"/>
				</g>
			</mask>
			<path class="st8" d="M169.4,126.3l18.4,19.5l-55.1,19.5L169.4,126.3z"/>
		</g>
	</g>
</g>
</svg>
